static pose
version=1
nRows=1
nColumns=38
inDegrees=yes
endheader
time	pelvis_tilt	pelvis_list	pelvis_rotation	pelvis_tx	pelvis_ty	pelvis_tz	hip_flexion_r	hip_adduction_r	hip_rotation_r	knee_angle_r	ankle_angle_r	subtalar_angle_r	mtp_angle_r	hip_flexion_l	hip_adduction_l	hip_rotation_l	knee_angle_l	ankle_angle_l	subtalar_angle_l	mtp_angle_l	lumbar_extension	lumbar_bending	lumbar_rotation	arm_flex_r	arm_add_r	arm_rot_r	elbow_flex_r	pro_sup_r	wrist_flex_r	wrist_dev_r	arm_flex_l	arm_add_l	arm_rot_l	elbow_flex_l	pro_sup_l	wrist_flex_l	wrist_dev_l
      0.00000000	      1.23803184	     -0.39948632	      1.00997515	     -0.17309065	      0.93145137	      0.03273990	     -4.40886366	     -3.17009525	     -5.39715255	     -2.20445134	      7.41534023	      0.00000000	      0.00000000	     -3.69785953	     -4.23504302	     -1.80575269	     -2.43769033	      6.95413326	      0.00000000	      0.00000000	     -4.41699995	      0.30899713	     -4.42284084	    -13.49031795	     -8.88839048	     -9.92342820	     39.67436734	    107.57441867	      0.00000000	      0.00000000	    -10.27181593	     -9.94669777	     -6.21659664	     36.16760384	    107.47421397	      0.00000000	      0.00000000
